<?xml version="1.0" encoding="utf-8"?>
<!-- Generator: Adobe Illustrator 23.0.1, SVG Export Plug-In . SVG Version: 6.00 Build 0)  -->
<svg version="1.1" id="Warstwa_1" xmlns="http://www.w3.org/2000/svg" xmlns:xlink="http://www.w3.org/1999/xlink" x="0px" y="0px"
	 viewBox="0 0 626.1 698.3" style="enable-background:new 0 0 626.1 698.3;" xml:space="preserve">
<style type="text/css">
	.st0{fill:#F3AD55;}
	.st1{fill:#FBDCA3;}
	.st2{opacity:0.1;enable-background:new    ;}
	.st3{fill:#383F4D;}
</style>
<title>woman</title>
<path class="st0" d="M557,268.7c-0.5,37.5-32.2,67.1-69.6,67.1h-5.2c-4.6,0-9,1.8-12.4,5c-2.5,2.4-4.3,5.4-5,8.8
	c-0.4,1.4-0.5,2.7-0.5,4.1v66.2c0,12.7-3.6,25.2-10.5,35.9c-10,15.2-15.4,32.9-15.6,51.1l0,0c0,17.7-14.3,32-32,32
	c-0.2,0-0.4,0-0.5,0c-17.6-0.3-31.3-15.4-31.3-32.9v-16.6l-8.7,1v16.6c0,17.7-14.3,32-32,32c-0.2,0-0.4,0-0.5,0
	c-17.6-0.3-31.3-15.4-31.3-32.9v-8.5c-8.7,3.6-58,3.6-71.6,0.1l-3.7-0.3v9.6c0,17.7-14.3,32-32,32c-0.2,0-0.4,0-0.5,0
	c-17.6-0.3-31.3-15.4-31.3-32.9v-13.8l-2.9-0.3v15.1c0.1,17.6-14.2,31.9-31.8,32c-0.2,0-0.5,0-0.7,0c-16-0.3-28.9-12.9-31-28.5
	c-0.2-1.5-0.3-3-0.3-4.5v-69.4c0-23.8,7.9-46.8,22.6-65.5c5.2-6.8,5.4-16.2,0.5-23.2c-16.2-23.8-40.2-63.9-39.5-92.3
	c0.2-8.2,2.5-15.5,7.6-21c0.3-0.4,0.6-0.7,1-1c23.3-24.4,64.5-5.2,60.9,28.4c-1.2,11.2-0.4,22.6,2.5,33.6c1.6,6.2,3.8,12.2,6.6,18
	c5.6,11.9,18.2,18.9,31.3,17.4c4.3-0.5,8.7-0.8,13.1-0.8h134.1c16.1,0,30.5-10.3,35.7-25.6c1.4-3.9,2-8,2-12.1V188
	c0-11.2,9.1-20.3,20.3-20.3c0.2,0,0.4,0,0.6,0c5.4,0.2,10.4,2.5,14,6.5c3.6,4,5.6,9.2,5.7,14.6c0,5.9,4.8,10.7,10.7,10.7
	c0,0,0,0,0,0H489c37.6,0,68.1,30.4,68.1,68C557.1,268,557.1,268.4,557,268.7L557,268.7z"/>
<path class="st1" d="M159,514.8c-3.7,14.3-16.7,24.2-31.5,24c-16-0.3-28.9-12.9-31-28.5C115.8,505.1,142.6,501.5,159,514.8z"/>
<path class="st1" d="M225.6,514.8c-3.7,14.3-16.7,24.2-31.5,24c-16-0.3-28.9-12.9-31-28.5C182.4,505.1,209.2,501.5,225.6,514.8z"/>
<path class="st1" d="M364.8,514.8c-3.7,14.3-16.7,24.2-31.5,24c-16-0.3-28.9-12.9-31-28.5C321.6,505.1,348.3,501.5,364.8,514.8z"/>
<path class="st1" d="M437.2,514.8c-3.7,14.3-16.7,24.2-31.5,24c-16-0.3-28.9-12.9-31-28.5C394,505.1,420.8,501.5,437.2,514.8z"/>
<path class="st1" d="M151.9,295.4c-22.5-9-50-25.6-71.9-39.9c0.2-8.2,2.5-15.5,7.6-21c0.3-0.4,0.6-0.7,1-1
	c23.3-24.4,64.5-5.2,60.9,28.4C148.2,273.1,149,284.5,151.9,295.4z"/>
<path class="st1" d="M179.1,330.2c0,0,62,78.1,163.5-0.2"/>
<path class="st1" d="M374.5,185.1c0,0,37.7,49.3,0,110.1"/>
<path class="st1" d="M464.3,353.2c0,0-33.2,41.2-0.4,74"/>
<path class="st2" d="M467.2,344.5c-2.5,2.3-1.6,4.6-2.4,8l-107.7-28.2c5.8-4.5,13-9.8,15.4-16.8
	C385.4,317.4,410.9,334.3,467.2,344.5z"/>
<path class="st3" d="M469.8,340.8c-2.5,2.4-4.3,5.4-5,8.8l-105-27.4c5.9-4.5,10.3-10.7,12.6-17.7
	C385.4,314.5,413.5,330.5,469.8,340.8z"/>
<path class="st2" d="M376.4,310.3c0,0,32.9,24.7,87.9,32.4"/>
<path class="st0" d="M376.4,307.4c0,0,32.9,24.7,87.9,32.4"/>
<path class="st2" d="M458.5,309.8c0,0,55.1,17.4,69.6-37.7L458.5,309.8z"/>
<path class="st1" d="M458.5,306.9c0,0,55.1,17.4,69.6-37.7L458.5,306.9z"/>
<ellipse class="st3" cx="557" cy="261.9" rx="5.8" ry="10.1"/>
<path class="st2" d="M117.9,470.6l11.6-92.7C129.5,377.9,94.8,433,117.9,470.6"/>
<path class="st1" d="M132.4,377.9c0,0-34.8,55.1-11.6,92.7L132.4,377.9z"/>
</svg>
